<svg width="129" height="128" viewBox="0 0 129 128" fill="none" xmlns="http://www.w3.org/2000/svg">
<rect width="128" height="128" transform="translate(0.5)" fill="#0B021B"/>
<path d="M55.316 85.5647C55.5164 86.0458 55.5966 86.4266 55.5565 86.7072C55.5565 87.0279 55.5766 87.4087 55.6166 87.8497C55.5766 87.8898 55.3761 88.0702 55.0153 88.3909C54.6545 88.7116 54.2336 89.0523 53.7526 89.4131C53.2715 89.7739 52.8105 90.0946 52.3696 90.3752C51.9687 90.6959 51.6881 90.8563 51.5277 90.8563C51.207 90.8563 50.9465 90.6759 50.746 90.3151C50.5857 89.9944 50.3652 89.7739 50.0846 89.6536C49.6837 89.4933 49.363 89.2728 49.1225 88.9922C48.9221 88.7517 48.7617 88.4711 48.6414 88.1504C48.5212 87.8297 48.421 87.4889 48.3408 87.1281C48.3007 86.7673 48.2406 86.4266 48.1604 86.1059C47.96 85.4244 47.7395 84.7229 47.499 84.0013C47.2985 83.2397 47.1983 82.5381 47.1983 81.8967C47.1983 81.6963 47.1983 81.5159 47.1983 81.3556C47.2384 81.1952 47.2584 81.0349 47.2584 80.8745C47.2584 80.2331 47.1582 79.6518 46.9578 79.1307C46.7573 78.6096 46.6571 78.0884 46.6571 77.5673C46.6571 77.6475 46.6371 77.407 46.597 76.8457C46.5569 76.2444 46.4767 75.603 46.3565 74.9215C46.2362 74.2 46.0358 73.5385 45.7552 72.9372C45.5146 72.3359 45.1939 72.0353 44.7931 72.0353C44.4724 72.0353 44.1316 72.1154 43.7708 72.2758C43.4101 72.396 43.0292 72.5363 42.6283 72.6967C42.2275 72.857 41.8266 73.0174 41.4257 73.1777C41.0649 73.298 40.7042 73.3581 40.3434 73.3581C40.0628 73.3581 39.8022 73.4584 39.5617 73.6588C39.3211 73.8592 39.0606 73.9594 38.78 73.9594C38.6998 73.9594 38.5996 73.9594 38.4793 73.9594C38.3991 73.9194 38.319 73.8993 38.2388 73.8993C38.0383 73.8993 37.6776 74.0597 37.1564 74.3804C36.6353 74.661 36.1743 74.8013 35.7734 74.8013C35.0518 74.8013 34.4305 75.2422 33.9094 76.1242C33.4283 76.966 33.0074 77.9682 32.6466 79.1307C32.2858 80.2532 31.9852 81.3556 31.7446 82.4379C31.5041 83.5203 31.2636 84.302 31.0231 84.783C30.9028 85.0235 30.7224 85.4044 30.4819 85.9255C30.2815 86.4466 30.0209 86.9678 29.7002 87.4889C29.3795 88.0101 29.0187 88.4711 28.6178 88.8719C28.217 89.2728 27.776 89.4732 27.2949 89.4732C27.0945 89.4732 26.7738 89.373 26.3329 89.1726C25.932 88.9721 25.7315 88.6314 25.7315 88.1504C25.7315 87.6292 25.8117 87.088 25.9721 86.5268C26.1324 85.9656 26.3128 85.3843 26.5132 84.783C26.7538 84.1817 26.9742 83.6004 27.1747 83.0392C27.3751 82.4379 27.5355 81.8566 27.6557 81.2954C27.7359 81.0148 27.8562 80.7342 28.0165 80.4536C28.217 80.173 28.3172 79.8723 28.3172 79.5516C28.3573 78.3891 28.5777 77.2466 28.9786 76.1242C29.3795 74.9616 29.5799 73.8392 29.5799 72.7568C29.5799 72.3159 29.4997 71.8949 29.3394 71.4941C29.1791 71.0531 29.0989 70.6322 29.0989 70.2313C29.0989 69.8705 29.2592 69.6901 29.5799 69.6901C29.7804 69.6901 29.9407 69.7102 30.061 69.7503C30.2213 69.7503 30.3817 69.7503 30.542 69.7503C30.9429 69.7503 31.1834 69.5699 31.2636 69.2091C31.3438 68.8082 31.3839 68.3873 31.3839 67.9463C31.3839 67.3049 31.464 66.7237 31.6244 66.2025C31.7847 65.6413 31.9651 65.1402 32.1656 64.6993C32.366 64.2583 32.5464 63.8374 32.7067 63.4365C32.8671 63.0357 32.9473 62.6348 32.9473 62.2339C32.9473 61.4322 33.0876 60.6304 33.3682 59.8287C33.6488 59.0269 33.9294 58.2252 34.21 57.4234C34.3704 57.1027 34.5307 56.8021 34.6911 56.5215C34.8915 56.2008 34.9917 55.84 34.9917 55.4391C35.2322 55.1184 35.3926 54.7777 35.4728 54.4169C35.593 54.0561 35.6932 53.6953 35.7734 53.3345C35.8536 52.9336 35.9338 52.5528 36.0139 52.192C36.0941 51.8312 36.2344 51.5105 36.4349 51.2299C37.0362 49.9471 37.6375 48.6643 38.2388 47.3815C38.8802 46.0988 39.4815 44.7959 40.0427 43.473C40.4837 42.4709 40.8845 41.7092 41.2453 41.1881C41.6462 40.6669 42.0671 40.3061 42.5081 40.1057C42.949 39.9053 43.4101 39.805 43.8911 39.805C44.4122 39.765 45.0135 39.7449 45.695 39.7449C46.4567 39.7449 47.038 40.0255 47.4388 40.5867C47.8798 41.148 48.2005 41.8295 48.4009 42.6312C48.6014 43.4329 48.7216 44.2748 48.7617 45.1567C48.8018 45.9985 48.8218 46.7402 48.8218 47.3815C48.8218 47.9829 48.8619 48.4839 48.9421 48.8848C49.0223 49.2857 49.0624 49.6866 49.0624 50.0874C49.0624 50.2478 49.0223 50.4081 48.9421 50.5685C48.902 50.7288 48.882 50.8892 48.882 51.0495C49.0022 51.0495 49.1425 51.3903 49.3029 52.0718C49.5033 52.7132 49.6837 53.535 49.8441 54.5371C50.0044 55.4992 50.1447 56.5615 50.265 57.7241C50.4253 58.8465 50.5456 59.8888 50.6258 60.8509C50.6258 61.2117 50.6057 61.5925 50.5656 61.9934C50.5656 62.3943 50.5656 62.7951 50.5656 63.196C50.5656 63.5568 50.6057 63.9176 50.6859 64.2784C50.7661 64.5991 50.8062 64.9598 50.8062 65.3607C50.8062 65.8017 50.9064 66.2426 51.1068 66.6836C51.3473 67.0845 51.5879 67.4853 51.8284 67.8862C52.109 68.2871 52.3495 68.688 52.55 69.0888C52.7905 69.4496 52.9107 69.7904 52.9107 70.1111C52.9107 70.4718 52.8105 70.8326 52.6101 71.1934C52.4497 71.5141 52.3696 71.8549 52.3696 72.2156C52.3696 72.857 52.4497 73.5185 52.6101 74.2C52.8105 74.8414 53.031 75.5028 53.2715 76.1843C53.5121 76.8658 53.7125 77.5272 53.8728 78.1686C54.0733 78.81 54.1735 79.4314 54.1735 80.0327C54.1735 81.0749 54.3539 82.0771 54.7147 83.0392C55.0755 84.0013 55.2559 84.9033 55.2559 85.7451L55.316 85.5647ZM51.5277 75.4026H51.4676H51.5277ZM37.7577 68.5477C37.9181 68.5477 38.0584 68.5677 38.1787 68.6078C38.2989 68.6078 38.4392 68.6078 38.5996 68.6078C38.6797 68.6078 38.7399 68.6078 38.78 68.6078C38.8201 68.5677 38.8802 68.5477 38.9604 68.5477C40.3634 68.3071 41.4458 68.1468 42.2074 68.0666C43.0092 67.9463 43.5904 67.806 43.9512 67.6457C44.3521 67.4453 44.5926 67.1847 44.6728 66.864C44.753 66.5433 44.7931 66.0622 44.7931 65.4208C44.7931 64.9398 44.7129 64.4988 44.5525 64.098C44.4323 63.657 44.3321 63.1359 44.2519 62.5346C44.1316 61.6927 44.0114 60.6304 43.8911 59.3476C43.8109 58.0648 43.6907 56.8221 43.5303 55.6195C43.4101 54.4169 43.2497 53.3946 43.0493 52.5528C42.8488 51.6709 42.6083 51.2299 42.3277 51.2299C42.1673 51.2299 41.987 51.4504 41.7865 51.8914C41.6262 52.2922 41.4458 52.7733 41.2453 53.3345C41.085 53.8557 40.9246 54.3768 40.7643 54.8979C40.6039 55.4191 40.4837 55.7999 40.4035 56.0404C40.3233 56.5215 40.183 56.9223 39.9826 57.243C39.8222 57.5637 39.6218 57.8644 39.3813 58.145C39.1808 58.4256 39.0004 58.6862 38.8401 58.9267C38.6797 59.1271 38.5996 59.3476 38.5996 59.5881C38.5996 59.6683 38.5996 59.7485 38.5996 59.8287C38.6397 59.9088 38.6597 59.989 38.6597 60.0692C38.6597 60.3097 38.5194 60.7707 38.2388 61.4522C37.9983 62.0936 37.7177 62.7951 37.397 63.5568C37.1163 64.3184 36.8558 65.0601 36.6152 65.7816C36.3747 66.5032 36.2545 67.0444 36.2545 67.4052C36.2545 67.6457 36.2745 67.9263 36.3146 68.247C36.3547 68.5677 36.5351 68.7281 36.8558 68.7281C37.0562 68.688 37.3569 68.6679 37.7577 68.6679V68.5477Z" fill="white"/>
<path d="M100.527 43.3528C100.367 43.914 100.106 44.4552 99.7453 44.9763C99.3845 45.4574 98.9836 45.8582 98.5426 46.1789C98.1017 47.2613 97.8812 48.2835 97.8812 49.2456C97.8812 49.6465 97.801 50.0273 97.6407 50.3881C97.5204 50.7489 97.4603 51.1097 97.4603 51.4705C97.4603 51.6709 97.4803 51.8513 97.5204 52.0116C97.5605 52.1319 97.5806 52.2922 97.5806 52.4927C97.5806 52.7332 97.5605 52.9737 97.5204 53.2143C97.4803 53.4548 97.4402 53.6953 97.4002 53.9358C97.1997 55.4591 96.9993 57.1428 96.7989 58.9868C96.6385 60.8308 96.5583 62.5947 96.5583 64.2784C96.5583 64.3585 96.5583 64.4588 96.5583 64.579C96.5984 64.6592 96.6185 64.7594 96.6185 64.8797C96.6185 64.9598 96.5383 65.0801 96.3779 65.2405C96.2176 65.3607 96.1374 65.5211 96.1374 65.7215C96.1374 65.8818 96.1775 66.0222 96.2577 66.1424C96.3378 66.2627 96.3779 66.403 96.3779 66.5633C96.3779 66.7638 96.2978 67.0243 96.1374 67.345C96.0171 67.6657 95.957 67.9864 95.957 68.3071C95.957 68.708 95.9971 69.0888 96.0773 69.4496C96.1975 69.7703 96.2577 70.091 96.2577 70.4117C96.2577 70.532 96.2376 70.6522 96.1975 70.7725C96.1975 70.8928 96.1975 71.013 96.1975 71.1333C96.1975 71.3738 96.2376 71.6344 96.3178 71.915C96.4381 72.1555 96.4982 72.396 96.4982 72.6366C96.4982 73.1978 96.3779 73.7791 96.1374 74.3804C95.937 74.9416 95.8368 75.5229 95.8368 76.1242C95.8368 76.9259 95.9169 77.8078 96.0773 78.7699C96.2777 79.6919 96.3779 80.6139 96.3779 81.536C96.3779 83.0994 96.418 84.5625 96.4982 85.9255C96.5784 87.2885 96.6185 88.6515 96.6185 90.0144C96.6185 90.4955 96.4581 90.8763 96.1374 91.1569C95.8167 91.4375 95.4158 91.638 94.9348 91.7582C94.4938 91.8785 94.0128 91.9587 93.4916 91.9987C93.0106 92.0388 92.5696 92.0589 92.1688 92.0589C92.0084 92.0589 91.7879 91.9987 91.5073 91.8785C91.2668 91.7582 91.0062 91.5778 90.7256 91.3373C90.4851 91.1369 90.2646 90.8963 90.0642 90.6157C89.8637 90.3752 89.7635 90.1146 89.7635 89.834C89.7635 89.5935 89.8237 89.3329 89.9439 89.0523C90.0642 88.7717 90.1243 88.4711 90.1243 88.1504C90.1243 87.9499 90.1043 87.7294 90.0642 87.4889C90.0241 87.2885 90.004 87.088 90.004 86.8876C90.004 86.6872 90.0241 86.5268 90.0642 86.4066C90.1444 86.3264 90.2245 86.2262 90.3047 86.1059C90.425 85.9856 90.5051 85.8053 90.5452 85.5647C90.6254 85.3643 90.6655 85.0436 90.6655 84.6026C90.6655 84.2819 90.6454 83.9813 90.6054 83.7007C90.6054 83.4201 90.6054 83.1795 90.6054 82.9791C90.6054 82.6584 90.4651 82.3978 90.1844 82.1974C89.9038 81.997 89.7635 81.7364 89.7635 81.4157C89.7635 81.1351 89.8838 80.7943 90.1243 80.3935C90.3648 79.9525 90.4851 79.4715 90.4851 78.9503C90.4851 78.349 90.5051 77.7477 90.5452 77.1464C90.5853 76.5451 90.6054 75.9438 90.6054 75.3425C90.6054 74.4205 90.5452 73.4784 90.425 72.5163C90.3047 71.5542 90.2446 70.6122 90.2446 69.6901C90.2446 69.1289 90.3247 68.5477 90.4851 67.9463C90.6454 67.345 90.7256 66.7437 90.7256 66.1424C90.7256 65.8217 90.7056 65.501 90.6655 65.1803C90.6655 64.8195 90.6655 64.4788 90.6655 64.1581C90.6655 62.8352 90.7457 61.5524 90.906 60.3097C91.1065 59.0269 91.2067 57.7241 91.2067 56.4012C91.2067 55.1986 91.3069 53.8156 91.5073 52.2522C91.7078 50.6888 91.9082 49.1454 92.1086 47.6221C92.1086 47.3816 92.0685 47.1009 91.9884 46.7802C91.9082 46.4595 91.7078 46.2992 91.3871 46.2992C91.1866 46.2992 90.9862 46.3593 90.7858 46.4796C90.5853 46.5598 90.3849 46.5998 90.1844 46.5998C89.7435 46.5998 89.3226 46.5598 88.9217 46.4796C88.5208 46.3593 88.1199 46.2992 87.7191 46.2992C86.7169 46.2992 85.7347 46.4195 84.7727 46.66C83.8106 46.9005 82.8084 47.0208 81.7661 47.0208C80.6437 47.0208 79.5613 46.9606 78.519 46.8404C77.4768 46.7201 76.4345 46.66 75.3922 46.66C75.0314 46.66 74.6306 46.68 74.1896 46.7201C73.7887 46.7602 73.5883 46.9606 73.5883 47.3214C73.5081 49.2055 73.4079 51.0696 73.2876 52.9136C73.2075 54.7576 73.1273 56.6417 73.0471 58.5659C73.0471 59.1271 73.0471 59.6683 73.0471 60.1894C73.0872 60.7106 73.1072 61.2518 73.1072 61.813C73.1072 65.02 73.0471 68.2069 72.9268 71.3738C72.8467 74.5407 72.7465 77.7277 72.6262 80.9346C72.6262 81.3756 72.6061 81.8967 72.5661 82.498C72.5661 83.0994 72.526 83.7207 72.4458 84.3621C72.4057 84.9634 72.3456 85.5046 72.2654 85.9856C72.1852 86.5068 72.085 86.8676 71.9648 87.068C71.7643 87.3486 71.624 87.6894 71.5438 88.0902C71.4637 88.4911 71.3234 88.8719 71.1229 89.2327C70.9626 89.6336 70.702 89.9543 70.3412 90.1948C70.0205 90.4754 69.4994 90.6157 68.7778 90.6157C68.5774 90.6157 68.397 90.5756 68.2366 90.4955C68.1164 90.4554 67.956 90.4353 67.7556 90.4353C67.5952 90.4353 67.4349 90.4554 67.2745 90.4955C67.1543 90.5356 67.014 90.5556 66.8536 90.5556C66.7734 90.5556 66.6532 90.4353 66.4928 90.1948C66.3325 89.9543 66.1721 89.6737 66.0118 89.353C65.8514 89.0323 65.7111 88.7116 65.5909 88.3909C65.4706 88.0702 65.4105 87.8096 65.4105 87.6092C65.4506 87.3286 65.4706 87.048 65.4706 86.7673C65.5107 86.4867 65.5307 86.2061 65.5307 85.9255C65.5307 85.4044 65.4506 84.9033 65.2902 84.4222C65.17 83.9412 65.1098 83.4802 65.1098 83.0392C65.1098 82.8388 65.1299 82.6384 65.17 82.4379C65.2501 82.1974 65.2902 81.9769 65.2902 81.7765C65.2902 81.3355 65.21 80.8745 65.0497 80.3935C64.9294 79.9124 64.8693 79.4314 64.8693 78.9503C64.8693 77.427 64.9094 75.9037 64.9896 74.3804C65.0697 72.817 65.1098 71.2736 65.1098 69.7503C65.1098 69.4697 65.0898 69.1891 65.0497 68.9084C65.0096 68.6278 64.9896 68.3472 64.9896 68.0666C64.9896 67.1446 65.0697 66.2627 65.2301 65.4208C65.4305 64.5389 65.5307 63.7572 65.5307 63.0757C65.5307 62.8753 65.4906 62.6548 65.4105 62.4143C65.3704 62.1738 65.3503 61.9533 65.3503 61.7529C65.3503 61.2317 65.4105 60.7306 65.5307 60.2496C65.651 59.7685 65.7111 59.2875 65.7111 58.8064C65.671 58.606 65.651 58.4457 65.651 58.3254C65.651 58.165 65.651 57.9846 65.651 57.7842C65.651 57.223 65.6911 56.6016 65.7713 55.9202C65.8514 55.1986 65.8915 54.497 65.8915 53.8156C65.8915 53.535 65.8715 53.2744 65.8314 53.0339C65.8314 52.7533 65.8314 52.4726 65.8314 52.192C65.8314 51.5105 65.9116 50.8491 66.0719 50.2077C66.2323 49.5262 66.3124 48.8447 66.3124 48.1633C66.3124 47.9628 66.2724 47.7624 66.1922 47.5619C66.1521 47.3615 66.0318 47.2212 65.8314 47.141C64.4283 46.9807 63.4061 46.8805 62.7647 46.8404C62.1233 46.7602 61.6423 46.68 61.3216 46.5998C61.041 46.4796 60.8004 46.2992 60.6 46.0587C60.4396 45.8181 60.139 45.4173 59.698 44.856C59.3773 44.4953 59.217 44.0543 59.217 43.5332C59.217 43.2526 59.237 43.0321 59.2771 42.8717C59.3172 42.7114 59.5577 42.5711 59.9987 42.4508C60.4797 42.3305 61.0209 42.2103 61.6222 42.09C62.2235 41.9698 62.8248 41.8695 63.4262 41.7894C64.0675 41.7092 64.5686 41.629 64.9294 41.5488C66.6131 41.2682 68.3168 41.0878 70.0406 41.0077C71.8044 40.8874 73.5482 40.8072 75.272 40.7671C77.0358 40.7271 78.7596 40.6669 80.4432 40.5867C82.167 40.5066 83.8707 40.3462 85.5544 40.1057C85.6345 40.1057 85.7147 40.1057 85.7949 40.1057C85.9151 40.0656 86.0154 40.0456 86.0955 40.0456C86.4162 40.0456 86.7169 40.0656 86.9975 40.1057C87.3182 40.1458 87.6389 40.1658 87.9596 40.1658C88.16 40.1658 88.3805 40.1458 88.621 40.1057C88.8616 40.0255 89.1021 39.9854 89.3426 39.9854C89.9038 39.9854 90.445 40.0055 90.9661 40.0456C91.4873 40.0857 92.0285 40.1057 92.5897 40.1057C92.9104 40.1057 93.2311 40.0857 93.5518 40.0456C93.9126 40.0055 94.2533 39.9854 94.574 39.9854C94.7344 39.9854 95.1753 40.0055 95.8969 40.0456C96.6185 40.0857 97.3601 40.1658 98.1217 40.2861C98.8834 40.4064 99.5649 40.6068 100.166 40.8874C100.808 41.1279 101.128 41.4887 101.128 41.9698C101.128 42.2103 101.048 42.4508 100.888 42.6913C100.727 42.9319 100.607 43.1523 100.527 43.3528L100.647 43.2926L100.527 43.3528Z" fill="#E428DC"/>
</svg>